<svg width="754" height="419" viewBox="0 0 754 419" fill="none" xmlns="http://www.w3.org/2000/svg">
<circle cx="124.124" cy="215.235" r="78.3639" fill="#D7EDFA"/>
<circle cx="124.124" cy="215.235" r="78.3639" fill="#D7EDFA"/>
<circle cx="227.656" cy="264.999" r="70.9279" fill="#D7EDFA"/>
<circle cx="227.656" cy="264.999" r="70.9279" fill="#D7EDFA"/>
<circle cx="304.876" cy="279.299" r="45.1879" fill="#D7EDFA"/>
<circle cx="304.876" cy="279.299" r="45.1879" fill="#D7EDFA"/>
<circle cx="44.0439" cy="262.139" r="44.0439" fill="#D7EDFA"/>
<circle cx="44.0439" cy="262.139" r="44.0439" fill="#D7EDFA"/>
<circle cx="94.38" cy="303.323" r="41.756" fill="#D7EDFA"/>
<circle cx="94.38" cy="303.323" r="41.756" fill="#D7EDFA"/>
<circle cx="150.536" cy="293.127" r="40.7121" fill="#D7EDFA"/>
<circle cx="150.536" cy="293.127" r="40.7121" fill="#D7EDFA"/>
<circle cx="280.52" cy="184.102" r="102.906" fill="#D7EDFA"/>
<circle cx="280.52" cy="184.102" r="102.906" fill="#D7EDFA"/>
<circle cx="387.042" cy="226.191" r="93.1416" fill="#D7EDFA"/>
<circle cx="387.042" cy="226.191" r="93.1416" fill="#D7EDFA"/>
<circle cx="488.446" cy="244.97" r="59.3402" fill="#D7EDFA"/>
<circle cx="488.446" cy="244.97" r="59.3402" fill="#D7EDFA"/>
<circle cx="145.926" cy="222.436" r="57.8379" fill="#D7EDFA"/>
<circle cx="145.926" cy="222.436" r="57.8379" fill="#D7EDFA"/>
<circle cx="212.026" cy="276.517" r="54.8334" fill="#D7EDFA"/>
<circle cx="212.026" cy="276.517" r="54.8334" fill="#D7EDFA"/>
<circle cx="285.77" cy="263.128" r="53.4626" fill="#D7EDFA"/>
<circle cx="285.77" cy="263.128" r="53.4626" fill="#D7EDFA"/>
<circle cx="247.608" cy="157.299" r="78.3639" fill="#D7EDFA"/>
<circle cx="247.608" cy="157.299" r="78.3639" fill="#D7EDFA"/>
<circle cx="351.14" cy="207.064" r="70.9279" fill="#D7EDFA"/>
<circle cx="351.14" cy="207.064" r="70.9279" fill="#D7EDFA"/>
<circle cx="428.36" cy="221.364" r="45.1879" fill="#D7EDFA"/>
<circle cx="428.36" cy="221.364" r="45.1879" fill="#D7EDFA"/>
<circle cx="167.528" cy="204.203" r="44.0439" fill="#D7EDFA"/>
<circle cx="167.528" cy="204.203" r="44.0439" fill="#D7EDFA"/>
<circle cx="217.864" cy="245.387" r="41.756" fill="#D7EDFA"/>
<circle cx="217.864" cy="245.387" r="41.756" fill="#D7EDFA"/>
<circle cx="274.02" cy="235.192" r="40.7121" fill="#D7EDFA"/>
<circle cx="274.02" cy="235.192" r="40.7121" fill="#D7EDFA"/>
<circle cx="374.569" cy="102.906" r="102.906" fill="#D7EDFA"/>
<circle cx="374.569" cy="102.906" r="102.906" fill="#D7EDFA"/>
<circle cx="510.526" cy="168.256" r="93.1416" fill="#D7EDFA"/>
<circle cx="510.526" cy="168.256" r="93.1416" fill="#D7EDFA"/>
<circle cx="611.93" cy="187.035" r="59.3402" fill="#D7EDFA"/>
<circle cx="611.93" cy="187.035" r="59.3402" fill="#D7EDFA"/>
<circle cx="269.41" cy="164.5" r="57.8379" fill="#D7EDFA"/>
<circle cx="269.41" cy="164.5" r="57.8379" fill="#D7EDFA"/>
<circle cx="335.51" cy="218.582" r="54.8334" fill="#D7EDFA"/>
<circle cx="335.51" cy="218.582" r="54.8334" fill="#D7EDFA"/>
<circle cx="409.253" cy="205.193" r="53.4626" fill="#D7EDFA"/>
<circle cx="409.253" cy="205.193" r="53.4626" fill="#D7EDFA"/>
<circle cx="375.526" cy="130.25" r="54.1299" fill="#D7EDFA"/>
<circle cx="340.004" cy="208.062" r="54.1299" fill="#D7EDFA"/>
<circle cx="564.981" cy="241.893" r="47.3637" fill="#D7EDFA"/>
<circle cx="210.065" cy="278.703" r="132.596" fill="white"/>
<circle cx="530.821" cy="278.703" r="132.596" fill="white"/>
<circle cx="371.075" cy="256.603" r="75.1377" fill="white"/>
<circle cx="445.581" cy="190.937" r="35.9903" fill="white"/>
<circle cx="325.613" cy="190.937" r="35.9903" fill="white"/>
<circle cx="82.5208" cy="296.382" r="61.8781" fill="white"/>
<circle cx="366.655" cy="331.741" r="61.8781" fill="white"/>
<circle cx="295.937" cy="380.991" r="37.8845" fill="white"/>
<circle cx="115.354" cy="373.414" r="37.8845" fill="white"/>
<circle cx="289.623" cy="165.05" r="37.8845" fill="white"/>
<circle cx="404.539" cy="181.466" r="37.8845" fill="white"/>
<circle cx="350.238" cy="165.05" r="37.8845" fill="white"/>
<circle cx="330.033" cy="176.415" r="79.5575" fill="white"/>
<circle cx="468.312" cy="166.944" r="70.0864" fill="white"/>
<circle cx="662.785" cy="279.334" r="70.0864" fill="white"/>
<circle cx="637.529" cy="366.469" r="44.83" fill="white"/>
<circle cx="708.247" cy="358.892" r="44.83" fill="white"/>
<circle cx="397.594" cy="115.168" r="44.83" fill="white"/>
<circle cx="426.007" cy="365.837" r="20.2051" fill="white"/>
</svg>
