<svg width="360" height="215" viewBox="0 0 360 215" fill="none" xmlns="http://www.w3.org/2000/svg">
<circle cx="80.5882" cy="80.5882" r="80.5882" transform="matrix(-1 0 0 1 312.941 0)" fill="white"/>
<circle cx="80.5882" cy="80.5882" r="80.5882" transform="matrix(-1 0 0 1 312.941 0)" fill="white"/>
<circle cx="72.9412" cy="72.9412" r="72.9412" transform="matrix(-1 0 0 1 198.823 58.8237)" fill="white"/>
<circle cx="72.9412" cy="72.9412" r="72.9412" transform="matrix(-1 0 0 1 198.823 58.8237)" fill="white"/>
<circle cx="46.4706" cy="46.4706" r="46.4706" transform="matrix(-1 0 0 1 92.9414 100)" fill="white"/>
<circle cx="46.4706" cy="46.4706" r="46.4706" transform="matrix(-1 0 0 1 92.9414 100)" fill="white"/>
<circle cx="45.2941" cy="45.2941" r="45.2941" transform="matrix(-1 0 0 1 360 83.5293)" fill="white"/>
<circle cx="45.2941" cy="45.2941" r="45.2941" transform="matrix(-1 0 0 1 360 83.5293)" fill="white"/>
<circle cx="42.9412" cy="42.9412" r="42.9412" transform="matrix(-1 0 0 1 305.882 128.235)" fill="white"/>
<circle cx="42.9412" cy="42.9412" r="42.9412" transform="matrix(-1 0 0 1 305.882 128.235)" fill="white"/>
<circle cx="41.8677" cy="41.8677" r="41.8677" transform="matrix(-1 0 0 1 247.059 118.824)" fill="white"/>
<circle cx="41.8677" cy="41.8677" r="41.8677" transform="matrix(-1 0 0 1 247.059 118.824)" fill="white"/>
</svg>
