<svg width="397" height="204" viewBox="0 0 397 204" fill="none" xmlns="http://www.w3.org/2000/svg">
<circle cx="73.3782" cy="127.24" r="46.3264" fill="white"/>
<circle cx="73.3782" cy="127.24" r="46.3264" fill="white"/>
<circle cx="134.583" cy="156.659" r="41.9305" fill="white"/>
<circle cx="134.583" cy="156.659" r="41.9305" fill="white"/>
<circle cx="180.233" cy="165.113" r="26.7138" fill="white"/>
<circle cx="180.233" cy="165.113" r="26.7138" fill="white"/>
<circle cx="26.0375" cy="154.968" r="26.0375" fill="white"/>
<circle cx="26.0375" cy="154.968" r="26.0375" fill="white"/>
<circle cx="55.7947" cy="179.315" r="24.6849" fill="white"/>
<circle cx="55.7947" cy="179.315" r="24.6849" fill="white"/>
<circle cx="88.9926" cy="173.287" r="24.0678" fill="white"/>
<circle cx="88.9926" cy="173.287" r="24.0678" fill="white"/>
<circle cx="165.835" cy="108.835" r="60.8352" fill="white"/>
<circle cx="165.835" cy="108.835" r="60.8352" fill="white"/>
<circle cx="228.808" cy="133.717" r="55.0625" fill="white"/>
<circle cx="228.808" cy="133.717" r="55.0625" fill="white"/>
<circle cx="288.755" cy="144.818" r="35.0802" fill="white"/>
<circle cx="288.755" cy="144.818" r="35.0802" fill="white"/>
<circle cx="86.2668" cy="131.497" r="34.1921" fill="white"/>
<circle cx="86.2668" cy="131.497" r="34.1921" fill="white"/>
<circle cx="125.344" cy="163.469" r="32.4158" fill="white"/>
<circle cx="125.344" cy="163.469" r="32.4158" fill="white"/>
<circle cx="168.938" cy="155.553" r="31.6055" fill="white"/>
<circle cx="168.938" cy="155.553" r="31.6055" fill="white"/>
<circle cx="146.378" cy="92.991" r="46.3264" fill="white"/>
<circle cx="146.378" cy="92.991" r="46.3264" fill="white"/>
<circle cx="207.583" cy="122.41" r="41.9305" fill="white"/>
<circle cx="207.583" cy="122.41" r="41.9305" fill="white"/>
<circle cx="253.233" cy="130.864" r="26.7138" fill="white"/>
<circle cx="253.233" cy="130.864" r="26.7138" fill="white"/>
<circle cx="99.0375" cy="120.719" r="26.0375" fill="white"/>
<circle cx="99.0375" cy="120.719" r="26.0375" fill="white"/>
<circle cx="128.795" cy="145.066" r="24.6849" fill="white"/>
<circle cx="128.795" cy="145.066" r="24.6849" fill="white"/>
<circle cx="161.993" cy="139.038" r="24.0678" fill="white"/>
<circle cx="161.993" cy="139.038" r="24.0678" fill="white"/>
<circle cx="221.434" cy="60.8352" r="60.8352" fill="white"/>
<circle cx="221.434" cy="60.8352" r="60.8352" fill="white"/>
<circle cx="301.808" cy="99.4678" r="55.0625" fill="white"/>
<circle cx="301.808" cy="99.4678" r="55.0625" fill="white"/>
<circle cx="361.755" cy="110.569" r="35.0802" fill="white"/>
<circle cx="361.755" cy="110.569" r="35.0802" fill="white"/>
<circle cx="159.267" cy="97.2477" r="34.1921" fill="white"/>
<circle cx="159.267" cy="97.2477" r="34.1921" fill="white"/>
<circle cx="198.344" cy="129.219" r="32.4158" fill="white"/>
<circle cx="198.344" cy="129.219" r="32.4158" fill="white"/>
<circle cx="241.938" cy="121.304" r="31.6055" fill="white"/>
<circle cx="241.938" cy="121.304" r="31.6055" fill="white"/>
<circle cx="222" cy="77" r="32" fill="white"/>
<circle cx="201" cy="123" r="32" fill="white"/>
<circle cx="334" cy="143" r="28" fill="white"/>
</svg>
